#!OML:ASF H:\Dans Jumps\Project 1\Capture day 1\Session 1\subject.ASF
:FULLY-SPECIFIED
:DEGREES
192
root 0.609478 17.5854 -13.8088 6.64459 -0.5626 -1.14776
lowerback -2.8352 -0.685511 -0.325018
upperback 1.62526 -0.956106 1.78755
thorax 3.29751 -0.504819 1.96807
lowerneck -13.8281 0.521051 -1.74299
upperneck 14.8207 1.09573 -0.108458
head 6.79273 0.41824 0.357967
rclavicle 1.25234e-014 -1.43125e-014
rhumerus -27.1593 -18.7229 -78.0013
rradius 22.8241
rwrist 34.3921
rhand -19.429 -26.8076
rfingers 7.12502
rthumb 6.89105 -56.6755
lclavicle 1.25234e-014 -1.43125e-014
lhumerus -23.0045 5.81739 86.115
lradius 14.5953
lwrist -1.00477
lhand -25.7529 -4.79503
lfingers 7.12502
lthumb 0.784419 25.1833
rfemur -11.847 -3.23961 20.1549
rtibia 20.6265
rfoot -14.2668 -3.94452
rtoes 13.356
lfemur -10.7107 8.8256 -19.8
ltibia 17.6111
lfoot -11.7805 3.52556
ltoes 2.56591
193
root 0.610163 17.5842 -13.8148 6.65339 -0.572216 -1.1547
lowerback -2.78666 -0.683097 -0.319184
upperback 1.63545 -0.953121 1.79309
thorax 3.28052 -0.503249 1.97115
lowerneck -13.8673 0.526435 -1.74681
upperneck 14.8977 1.10365 -0.0982678
head 6.8242 0.421988 0.363106
rclavicle -1.86858e-014 -5.56597e-015
rhumerus -27.1462 -18.701 -78.005
rradius 22.8374
rwrist 34.3627
rhand -19.4409 -26.7888
rfingers 7.12502
rthumb 6.87952 -56.657
lclavicle -1.86858e-014 -5.56597e-015
lhumerus -23.0106 5.77343 86.1351
lradius 14.6231
lwrist -0.956394
lhand -25.7387 -4.78246
lfingers 7.12502
lthumb 0.798085 25.1958
rfemur -11.917 -3.2165 20.1617
rtibia 20.6933
rfoot -14.2631 -3.9575
rtoes 13.3177
lfemur -10.7892 8.82884 -19.8012
ltibia 17.6962
lfoot -11.7835 3.53599
ltoes 2.51876
194
root 0.610772 17.583 -13.8211 6.66176 -0.584862 -1.16159
lowerback -2.73177 -0.680302 -0.315147
upperback 1.64308 -0.949454 1.79828
thorax 3.2573 -0.501331 1.97498
lowerneck -13.9025 0.531801 -1.72539
upperneck 14.9758 1.1107 -0.114478
head 6.85563 0.424419 0.3555
rclavicle -2.88238e-015 -5.96354e-015
rhumerus -27.1499 -18.681 -78.0041
rradius 22.8632
rwrist 34.353
rhand -19.4734 -26.7501
rfingers 7.12502
rthumb 6.84814 -56.6193
lclavicle -2.88238e-015 -5.96354e-015
lhumerus -23.0294 5.71954 86.1545
lradius 14.6522
lwrist -0.9056
lhand -25.7384 -4.77534
lfingers 7.12502
lthumb 0.798363 25.2029
rfemur -11.9876 -3.19206 20.1684
rtibia 20.7598
rfoot -14.2583 -3.96956
rtoes 13.2715
lfemur -10.8726 8.83453 -19.8024
ltibia 17.7914
lfoot -11.7919 3.54741
ltoes 2.47831
195
root 0.611421 17.5817 -13.8278 6.67123 -0.602304 -1.17709
lowerback -2.67397 -0.675337 -0.301965
upperback 1.65395 -0.943328 1.80499
thorax 3.23557 -0.498029 1.97539
lowerneck -13.9441 0.5402 -1.69611
upperneck 15.0531 1.12131 -0.136236
head 6.88802 0.428512 0.345188
rclavicle 1.06847e-014 -2.26615e-014
rhumerus -27.1497 -18.6585 -78.005
rradius 22.8863
rwrist 34.3395
rhand -19.5025 -26.7184
rfingers 7.12502
rthumb 6.82007 -56.5886
lclavicle 1.06847e-014 -2.26615e-014
lhumerus -23.0507 5.6359 86.1815
lradius 14.694
lwrist -0.819254
lhand -25.7381 -4.75937
lfingers 7.12502
lthumb 0.798649 25.2189
rfemur -12.061 -3.16321 20.1844
rtibia 20.8251
rfoot -14.2517 -3.97947
rtoes 13.2297
lfemur -10.9635 8.84119 -19.7947
ltibia 17.8958
lfoot -11.8027 3.56279
ltoes 2.45323
196
root 0.612088 17.5804 -13.8351 6.68298 -0.62208 -1.19491
lowerback -2.6136 -0.66925 -0.286417
upperback 1.6668 -0.935771 1.81112
thorax 3.21433 -0.493969 1.97396
lowerneck -13.9784 0.546965 -1.66454
upperneck 15.1208 1.12915 -0.159122
head 6.9161 0.431401 0.333792
rclavicle -1.53561e-014 2.06736e-014
rhumerus -27.1493 -18.6308 -78.0089
rradius 22.9101
rwrist 34.3198
rhand -19.5232 -26.7017
rfingers 7.12502
rthumb 6.8001 -56.5725
lclavicle -1.53561e-014 2.06736e-014
lhumerus -23.0747 5.52277 86.214
lradius 14.7432
lwrist -0.700627
lhand -25.7446 -4.75635
lfingers 7.12502
lthumb 0.792461 25.2219
rfemur -12.1385 -3.13318 20.203
rtibia 20.8885
rfoot -14.2419 -3.98775
rtoes 13.1864
lfemur -11.0628 8.84772 -19.7851
ltibia 18.0085
lfoot -11.8162 3.58109
ltoes 2.43663
197
root 0.612856 17.5792 -13.8429 6.69645 -0.643016 -1.21632
lowerback -2.552 -0.662308 -0.266447
upperback 1.68354 -0.927291 1.81783
thorax 3.19632 -0.489396 1.97069
lowerneck -14.0089 0.551643 -1.64779
upperneck 15.1831 1.13456 -0.167101
head 6.94165 0.433648 0.329361
rclavicle -6.70898e-015 -1.07344e-014
rhumerus -27.1434 -18.5977 -78.0145
rradius 22.9301
rwrist 34.292
rhand -19.5259 -26.7055
rfingers 7.12502
rthumb 6.79747 -56.5764
lclavicle -6.70898e-015 -1.07344e-014
lhumerus -23.098 5.38181 86.2536
lradius 14.7992
lwrist -0.549233
lhand -25.7588 -4.7598
lfingers 7.12502
lthumb 0.778686 25.2185
rfemur -12.2185 -3.1035 20.2253
rtibia 20.9494
rfoot -14.2303 -3.99335
rtoes 13.1544
lfemur -11.1696 8.854 -19.7723
ltibia 18.1292
lfoot -11.8313 3.60012
ltoes 2.43401
198
root 0.613653 17.5781 -13.8513 6.71443 -0.66337 -1.24279
lowerback -2.49031 -0.655078 -0.241143
upperback 1.70283 -0.918674 1.8256
thorax 3.18082 -0.484677 1.9655
lowerneck -14.0314 0.553914 -1.65018
upperneck 15.2362 1.13708 -0.1556
head 6.96258 0.435245 0.334015
rclavicle -3.13086e-015 7.15625e-015
rhumerus -27.1309 -18.5574 -78.0229
rradius 22.9424
rwrist 34.2519
rhand -19.5118 -26.7257
rfingers 7.12502
rthumb 6.8111 -56.5961
lclavicle -3.13086e-015 7.15625e-015
lhumerus -23.1195 5.22212 86.2964
lradius 14.8609
lwrist -0.376864
lhand -25.767 -4.7673
lfingers 7.12502
lthumb 0.770827 25.2111
rfemur -12.3052 -3.07166 20.2537
rtibia 21.0093
rfoot -14.2173 -4.00041
rtoes 13.1368
lfemur -11.286 8.86069 -19.7548
ltibia 18.254
lfoot -11.8464 3.61752
ltoes 2.43146
199
root 0.614498 17.5772 -13.8602 6.73774 -0.682391 -1.27002
lowerback -2.43206 -0.648409 -0.215187
upperback 1.72639 -0.910914 1.83414
thorax 3.17171 -0.480433 1.96063
lowerneck -14.0546 0.552816 -1.67635
upperneck 15.2863 1.13618 -0.122008
head 6.98247 0.435827 0.349376
rclavicle 2.48481e-015 2.78299e-015
rhumerus -27.1094 -18.5133 -78.0323
rradius 22.9497
rwrist 34.2015
rhand -19.4898 -26.7466
rfingers 7.12502
rthumb 6.83238 -56.6164
lclavicle 2.48481e-015 2.78299e-015
lhumerus -23.1351 5.05802 86.3397
lradius 14.9216
lwrist -0.204678
lhand -25.7724 -4.77475
lfingers 7.12502
lthumb 0.76561 25.2036
rfemur -12.3993 -3.04159 20.2836
rtibia 21.0683
rfoot -14.2019 -4.00787
rtoes 13.1253
lfemur -11.4108 8.86629 -19.7373
ltibia 18.3805
lfoot -11.8615 3.63251
ltoes 2.43622
200
root 0.615335 17.5764 -13.8694 6.76526 -0.698328 -1.2952
lowerback -2.37598 -0.643089 -0.19191
upperback 1.75082 -0.90485 1.84251
thorax 3.16483 -0.477103 1.95697
lowerneck -14.0702 0.549462 -1.71307
upperneck 15.3335 1.13263 -0.0791314
head 7 0.435397 0.369171
rclavicle 1.98785e-015 1.35174e-014
rhumerus -27.0918 -18.4638 -78.0404
rradius 22.9603
rwrist 34.1433
rhand -19.4649 -26.7569
rfingers 7.12502
rthumb 6.85635 -56.6258
lclavicle 1.98785e-015 1.35174e-014
lhumerus -23.1539 4.89091 86.381
lradius 14.9794
lwrist -0.0381486
lhand -25.7779 -4.79309
lfingers 7.12502
lthumb 0.760212 25.1853
rfemur -12.4994 -3.0134 20.3119
rtibia 21.1285
rfoot -14.1867 -4.01805
rtoes 13.1199
lfemur -11.54 8.87196 -19.7229
ltibia 18.5035
lfoot -11.876 3.64465
ltoes 2.43188
201
root 0.616207 17.5755 -13.879 6.79685 -0.710876 -1.31936
lowerback -2.3207 -0.638951 -0.169698
upperback 1.77633 -0.900335 1.85128
thorax 3.15959 -0.474585 1.95422
lowerneck -14.0899 0.547533 -1.75139
upperneck 15.385 1.13109 -0.0340907
head 7.01958 0.435995 0.39018
rclavicle -3.32964e-015 1.19271e-015
rhumerus -27.0771 -18.409 -78.0463
rradius 22.9722
rwrist 34.0713
rhand -19.448 -26.7529
rfingers 7.12502
rthumb 6.87265 -56.6213
lclavicle -3.32964e-015 1.19271e-015
lhumerus -23.1749 4.7258 86.4198
lradius 15.0358
lwrist 0.118792
lhand -25.7742 -4.80657
lfingers 7.12502
lthumb 0.763827 25.1718
rfemur -12.6061 -2.98925 20.3396
rtibia 21.1904
rfoot -14.1713 -4.02922
rtoes 13.1105
lfemur -11.6726 8.87655 -19.7105
ltibia 18.6207
lfoot -11.8885 3.6535
ltoes 2.42225
202
root 0.617065 17.5748 -13.8884 6.82912 -0.72137 -1.3327
lowerback -2.26484 -0.636409 -0.160088
upperback 1.79854 -0.897338 1.85773
thorax 3.15085 -0.473042 1.9561
lowerneck -14.1044 0.546498 -1.76062
upperneck 15.4412 1.12987 -0.0196547
head 7.04019 0.435655 0.396539
rclavicle -6.4605e-015 9.54166e-015
rhumerus -27.0892 -18.3481 -78.0444
rradius 23.0041
rwrist 34.0058
rhand -19.4551 -26.7261
rfingers 7.12502
rthumb 6.86585 -56.5947
lclavicle -6.4605e-015 9.54166e-015
lhumerus -23.2119 4.57033 86.4521
lradius 15.0825
lwrist 0.252563
lhand -25.7888 -4.84289
lfingers 7.12502
lthumb 0.749699 25.1355
rfemur -12.7139 -2.9718 20.3552
rtibia 21.2547
rfoot -14.1583 -4.03826
rtoes 13.0914
lfemur -11.8019 8.88525 -19.7105
ltibia 18.7304
lfoot -11.9014 3.65616
ltoes 2.40801
203
root 0.617995 17.574 -13.8979 6.86171 -0.731583 -1.34305
lowerback -2.20788 -0.633688 -0.153631
upperback 1.82191 -0.89397 1.86371
thorax 3.1427 -0.471387 1.95929
lowerneck -14.1216 0.548486 -1.75353
upperneck 15.5021 1.13225 -0.021524
head 7.06298 0.436484 0.395333
rclavicle 4.67144e-015 -6.75868e-015
rhumerus -27.1142 -18.2766 -78.0394
rradius 23.047
rwrist 33.9281
rhand -19.4602 -26.7123
rfingers 7.12502
rthumb 6.86097 -56.5812
lclavicle 4.67144e-015 -6.75868e-015
lhumerus -23.2588 4.40949 86.484
lradius 15.1335
lwrist 0.393821
lhand -25.8004 -4.86961
lfingers 7.12502
lthumb 0.73851 25.1089
rfemur -12.8233 -2.9586 20.3674
rtibia 21.3222
rfoot -14.1483 -4.04499
rtoes 13.0602
lfemur -11.929 8.89763 -19.7144
ltibia 18.8329
lfoot -11.9118 3.65459
ltoes 2.38977
204
root 0.618946 17.5731 -13.9076 6.89414 -0.743914 -1.34949
lowerback -2.14841 -0.63023 -0.152718
upperback 1.84628 -0.8894 1.86941
thorax 3.13421 -0.469257 1.96539
lowerneck -14.1415 0.553825 -1.7336
upperneck 15.5666 1.13884 -0.0363606
head 7.08752 0.438878 0.388265
rclavicle 3.27995e-015 -7.95139e-015
rhumerus -27.1534 -18.1876 -78.033
rradius 23.102
rwrist 33.829
rhand -19.4625 -26.7171
rfingers 7.12502
rthumb 6.85873 -56.586
lclavicle 3.27995e-015 -7.95139e-015
lhumerus -23.3149 4.24569 86.5151
lradius 15.1861
lwrist 0.542104
lhand -25.8106 -4.89077
lfingers 7.12502
lthumb 0.728628 25.0877
rfemur -12.9351 -2.94668 20.3749
rtibia 21.3937
rfoot -14.1417 -4.0486
rtoes 13.025
lfemur -12.0537 8.91407 -19.7231
ltibia 18.9293
lfoot -11.9189 3.65152
ltoes 2.3658
205
root 0.619886 17.5722 -13.9174 6.92654 -0.759405 -1.34857
lowerback -2.08643 -0.626219 -0.161493
upperback 1.87148 -0.883711 1.87415
thorax 3.12526 -0.466777 1.97601
lowerneck -14.164 0.561252 -1.70976
upperneck 15.6366 1.14834 -0.0556636
head 7.11437 0.442441 0.379432
rclavicle -4.52235e-015 1.78906e-014
rhumerus -27.2061 -18.0916 -78.0211
rradius 23.1633
rwrist 33.7219
rhand -19.4623 -26.7372
rfingers 7.12502
rthumb 6.8589 -56.6061
lclavicle -4.52235e-015 1.78906e-014
lhumerus -23.3814 4.08457 86.5447
lradius 15.2405
lwrist 0.70307
lhand -25.8285 -4.90559
lfingers 7.12502
lthumb 0.711405 25.073
rfemur -13.0501 -2.93441 20.3739
rtibia 21.4702
rfoot -14.1399 -4.0497
rtoes 12.9916
lfemur -12.1782 8.93658 -19.7406
ltibia 19.0239
lfoot -11.9244 3.64543
ltoes 2.33364
